<?xml version="1.0" encoding="UTF-8" standalone="no"?>
<!-- Created with Inkscape (http://www.inkscape.org/) -->

<svg
   width="64pt"
   height="64pt"
   viewBox="0 0 22.577778 22.577778"
   version="1.1"
   id="svg831"
   inkscape:version="1.1.1 (3bf5ae0d25, 2021-09-20)"
   sodipodi:docname="Export - Unblash - 64px.svg"
   inkscape:export-filename="C:\Users\User\Desktop\CARLOS PROJECT\6. JUNI 1\Done\1\FILEDLINE\24 - Children Toy Ship.png"
   inkscape:export-xdpi="576"
   inkscape:export-ydpi="576"
   xmlns:inkscape="http://www.inkscape.org/namespaces/inkscape"
   xmlns:sodipodi="http://sodipodi.sourceforge.net/DTD/sodipodi-0.dtd"
   xmlns="http://www.w3.org/2000/svg"
   xmlns:svg="http://www.w3.org/2000/svg"
   xmlns:rdf="http://www.w3.org/1999/02/22-rdf-syntax-ns#"
   xmlns:cc="http://creativecommons.org/ns#"
   xmlns:dc="http://purl.org/dc/elements/1.1/">
  <defs
     id="defs825">
    <pattern
       id="EMFhbasepattern"
       patternUnits="userSpaceOnUse"
       width="6"
       height="6"
       x="0"
       y="0" />
    <pattern
       id="EMFhbasepattern-9"
       patternUnits="userSpaceOnUse"
       width="6"
       height="6"
       x="0"
       y="0" />
    <pattern
       id="EMFhbasepattern-0"
       patternUnits="userSpaceOnUse"
       width="6"
       height="6"
       x="0"
       y="0" />
    <pattern
       id="EMFhbasepattern-7"
       patternUnits="userSpaceOnUse"
       width="6"
       height="6"
       x="0"
       y="0" />
    <pattern
       id="EMFhbasepattern-2"
       patternUnits="userSpaceOnUse"
       width="6"
       height="6"
       x="0"
       y="0" />
    <pattern
       id="EMFhbasepattern-98"
       patternUnits="userSpaceOnUse"
       width="6"
       height="6"
       x="0"
       y="0" />
    <pattern
       id="EMFhbasepattern-6"
       patternUnits="userSpaceOnUse"
       width="6"
       height="6"
       x="0"
       y="0" />
    <pattern
       id="EMFhbasepattern-01"
       patternUnits="userSpaceOnUse"
       width="6"
       height="6"
       x="0"
       y="0" />
    <pattern
       id="EMFhbasepattern-07"
       patternUnits="userSpaceOnUse"
       width="6"
       height="6"
       x="0"
       y="0" />
    <pattern
       id="EMFhbasepattern-8"
       patternUnits="userSpaceOnUse"
       width="6"
       height="6"
       x="0"
       y="0" />
    <pattern
       id="EMFhbasepattern-4"
       patternUnits="userSpaceOnUse"
       width="6"
       height="6"
       x="0"
       y="0" />
    <pattern
       id="EMFhbasepattern-40"
       patternUnits="userSpaceOnUse"
       width="6"
       height="6"
       x="0"
       y="0" />
    <pattern
       id="EMFhbasepattern-08"
       patternUnits="userSpaceOnUse"
       width="6"
       height="6"
       x="0"
       y="0" />
    <pattern
       id="EMFhbasepattern-04"
       patternUnits="userSpaceOnUse"
       width="6"
       height="6"
       x="0"
       y="0" />
    <pattern
       id="EMFhbasepattern-014"
       patternUnits="userSpaceOnUse"
       width="6"
       height="6"
       x="0"
       y="0" />
    <pattern
       id="EMFhbasepattern-27"
       patternUnits="userSpaceOnUse"
       width="6"
       height="6"
       x="0"
       y="0" />
    <pattern
       id="EMFhbasepattern-09"
       patternUnits="userSpaceOnUse"
       width="6"
       height="6"
       x="0"
       y="0" />
    <pattern
       id="EMFhbasepattern-5"
       patternUnits="userSpaceOnUse"
       width="6"
       height="6"
       x="0"
       y="0" />
    <pattern
       id="EMFhbasepattern-018"
       patternUnits="userSpaceOnUse"
       width="6"
       height="6"
       x="0"
       y="0" />
  </defs>
  <sodipodi:namedview
     id="base"
     pagecolor="#ffffff"
     bordercolor="#666666"
     borderopacity="1.0"
     inkscape:pageopacity="0.0"
     inkscape:pageshadow="2"
     inkscape:zoom="9.1757813"
     inkscape:cx="42.612175"
     inkscape:cy="42.666667"
     inkscape:document-units="pt"
     inkscape:current-layer="layer1"
     showgrid="false"
     units="pt"
     inkscape:window-width="1920"
     inkscape:window-height="1001"
     inkscape:window-x="-9"
     inkscape:window-y="-9"
     inkscape:window-maximized="1"
     inkscape:pagecheckerboard="true"
     inkscape:showpageshadow="false"
     inkscape:object-paths="true"
     inkscape:snap-intersection-paths="true"
     inkscape:snap-smooth-nodes="true"
     inkscape:snap-midpoints="true"
     showguides="true"
     inkscape:snap-bbox="true"
     inkscape:bbox-nodes="true"
     inkscape:snap-nodes="false"
     inkscape:snap-global="true"
     inkscape:snap-others="false">
    <inkscape:grid
       type="xygrid"
       id="grid1378" />
    <sodipodi:guide
       position="0.97013831,21.607643"
       orientation="78.000048,0"
       id="guide1380"
       inkscape:locked="false" />
    <sodipodi:guide
       position="0.97013831,0.97013129"
       orientation="0,78.000005"
       id="guide1382"
       inkscape:locked="false" />
    <sodipodi:guide
       position="21.607639,0.97013129"
       orientation="-78.000048,0"
       id="guide1384"
       inkscape:locked="false" />
    <sodipodi:guide
       position="21.607639,21.607643"
       orientation="0,-78.000005"
       id="guide1386"
       inkscape:locked="false" />
  </sodipodi:namedview>
  <metadata
     id="metadata828">
    <rdf:RDF>
      <cc:Work
         rdf:about="">
        <dc:format>image/svg+xml</dc:format>
        <dc:type
           rdf:resource="http://purl.org/dc/dcmitype/StillImage" />
      </cc:Work>
    </rdf:RDF>
  </metadata>
  <g
     inkscape:label="Icon"
     inkscape:groupmode="layer"
     id="layer1"
     transform="translate(0,-274.42223)">
    <g
       id="g218469"
       style="display:inline;stroke-width:0.748034"
       transform="matrix(1.3368375,0,0,1.3368375,-81.584727,-100.01057)">
      <g
         id="g162945"
         style="stroke-width:0.748034">
        <path
           style="fill:#ececec;fill-opacity:1;stroke:none;stroke-width:0.395835;stroke-linecap:round;stroke-linejoin:round;stroke-opacity:1;stop-color:#000000"
           d="m 72.600936,284.88418 c 0,-0.33843 -0.227418,-0.63461 -0.554368,-0.72201 l -2.091191,-0.55887 -2.646747,0.70915 v 2.60633 z"
           id="path192653"
           sodipodi:nodetypes="ccsc" />
        <path
           style="color:#000000;fill:#ececec;stroke-width:0.748034;stroke-linecap:round;stroke-linejoin:round;-inkscape-stroke:none"
           d="m 67.240234,284.05664 -1.578125,0.42383 c -0.717179,0.16425 -1.23677,0.79209 -1.263672,1.52734 a 0.26460996,0.26460996 0 0 0 0.265625,0.27344 h 5.291016 a 0.26460996,0.26460996 0 0 0 0.263672,-0.27344 c -0.0269,-0.73525 -0.546492,-1.36309 -1.263672,-1.52734 l -1.578125,-0.42383 a 0.26460996,0.26460996 0 0 0 -0.136719,0 z"
           id="path192650" />
        <path
           style="color:#000000;fill:#fca311;stroke-width:0.748034;stroke-linecap:round;stroke-linejoin:round;-inkscape-stroke:none"
           d="m 69.263672,284.9668 -1.400391,0.375 c -0.477554,0.12795 -0.818359,0.57396 -0.818359,1.06836 v 2.08593 c 2e-6,0.49366 0.473517,0.865 0.953125,0.74805 l 1.392578,-0.33789 c 0.485025,-0.11827 0.828122,-0.5574 0.828125,-1.05664 v -2.14844 c 0,-0.2472 -0.102822,-0.47727 -0.285156,-0.61719 -0.182334,-0.13991 -0.431145,-0.18115 -0.669922,-0.11718 z"
           id="path192644" />
        <path
           style="color:#000000;fill:#fca311;stroke-width:0.748034;stroke-linecap:round;stroke-linejoin:round;-inkscape-stroke:none"
           d="m 69.263672,288.37695 -1.400391,0.375 c -0.477554,0.12796 -0.818359,0.57396 -0.818359,1.06836 v 2.08594 c 2e-6,0.49366 0.473517,0.865 0.953125,0.74805 l 1.392578,-0.33789 c 0.485025,-0.11828 0.828122,-0.55741 0.828125,-1.05664 v -2.14844 c 0,-0.2472 -0.102822,-0.47728 -0.285156,-0.61719 -0.182334,-0.13991 -0.431145,-0.18116 -0.669922,-0.11719 z"
           id="path192641" />
        <path
           style="fill:#ececec;fill-opacity:1;stroke:none;stroke-width:0.395835;stroke-linecap:round;stroke-linejoin:round;stroke-opacity:1;stop-color:#000000"
           d="m 62.017629,284.88727 c 0,-0.33847 0.227337,-0.63475 0.554276,-0.72236 l 2.092293,-0.56112 2.644757,0.70862 -1.587157,0.42504 c -0.601687,0.1378 -1.035786,0.66258 -1.058355,1.27943 z"
           id="path192638"
           sodipodi:nodetypes="ccccccc" />
        <path
           style="color:#000000;fill:#fca311;stroke-width:0.748034;stroke-linecap:round;stroke-linejoin:round;-inkscape-stroke:none"
           d="m 71.910156,284.22461 -1.40039,0.375 c -0.477554,0.12796 -0.81836,0.57396 -0.81836,1.06836 v 2.08594 c 2e-6,0.49366 0.473518,0.865 0.953125,0.74804 l 1.392578,-0.33984 c 0.485025,-0.11827 0.828123,-0.55545 0.828125,-1.05469 v -2.14844 c 0,-0.2472 -0.102822,-0.47727 -0.285156,-0.61718 -0.182334,-0.13991 -0.431145,-0.18116 -0.669922,-0.11719 z"
           id="path192632" />
        <path
           style="color:#000000;fill:#dc1c4b;stroke-width:0.748034;stroke-linecap:round;stroke-linejoin:round;-inkscape-stroke:none"
           d="m 65.355469,288.37695 c -0.238777,-0.064 -0.487588,-0.0227 -0.669922,0.11719 -0.182334,0.13991 -0.287109,0.36999 -0.28711,0.61719 v 2.14844 c 3e-6,0.49923 0.343101,0.93836 0.828125,1.05664 l 1.392579,0.33789 c 0.479607,0.11695 0.955076,-0.25439 0.955078,-0.74805 v -2.08594 c 0,-0.4944 -0.342759,-0.9404 -0.820313,-1.06836 z"
           id="path192626" />
        <path
           style="color:#000000;fill:#dc1c4b;stroke-width:0.748034;stroke-linecap:round;stroke-linejoin:round;-inkscape-stroke:none"
           d="m 65.355469,284.9668 c -0.238777,-0.064 -0.487588,-0.0227 -0.669922,0.11718 -0.182334,0.13992 -0.287109,0.36999 -0.28711,0.61719 v 2.14844 c 3e-6,0.49924 0.343101,0.93837 0.828125,1.05664 l 1.392579,0.33789 c 0.479607,0.11695 0.955076,-0.25439 0.955078,-0.74805 v -2.08593 c 0,-0.4944 -0.342759,-0.94041 -0.820313,-1.06836 z"
           id="path192614" />
        <path
           style="color:#000000;fill:#b05e00;fill-opacity:1;stroke-width:0.748034;stroke-linecap:round;stroke-linejoin:round;-inkscape-stroke:none"
           d="m 71.910156,287.63477 -1.40039,0.375 c -0.477554,0.12795 -0.81836,0.57396 -0.81836,1.06835 v 2.08399 c 2e-6,0.49366 0.473518,0.86695 0.953125,0.75 l 1.392578,-0.33984 c 0.485025,-0.11828 0.828123,-0.55545 0.828125,-1.05469 v -2.14844 c 0,-0.2472 -0.102822,-0.47728 -0.285156,-0.61719 -0.182334,-0.13991 -0.431145,-0.18116 -0.669922,-0.11718 z"
           id="path192611" />
        <path
           id="path192608"
           style="color:#000000;fill:#b05e00;fill-opacity:1;stroke-width:2.82722;stroke-linecap:round;stroke-linejoin:round;-inkscape-stroke:none"
           d="m 275.39648,31.378906 c 0,-0.855935 -0.32752,-1.65637 -0.9121,-2.191406 0.48185,-0.59707 0.79372,-1.328794 0.88281,-2.117188 -3.92347,1.026462 -7.94139,2.16112 -11.89258,3.246094 -1.7268,0.46269 -2.67188,2.294892 -2.67188,4.533203 v 4.796875 c 2e-5,0.789166 0.42786,1.436612 0.72266,2.134766 -0.25984,0.584655 -0.72264,1.055685 -0.72266,1.734375 v 3.138672 l 1.46094,-0.355469 c 1.0914,-0.266153 1.9923,-0.963005 2.54297,-1.880859 z"
           transform="matrix(0.26458334,0,0,0.26458334,0,280.06666)"
           sodipodi:nodetypes="ccccsccccccc" />
        <path
           id="path192605"
           style="fill:#ececec;fill-opacity:1;stroke:none;stroke-width:0.395835;stroke-linecap:round;stroke-linejoin:round;stroke-opacity:1;stop-color:#000000"
           d="m 69.871565,289.92157 c 0,-0.90927 0.06207,-1.26788 0.60431,-1.4169 l 2.389652,-0.65675 c 0.349399,-0.096 0.718231,-0.096 1.06763,0 l 2.40714,0.66156 c 0.864541,0.23165 0.586823,0.61658 0.586823,1.41209 z"
           sodipodi:nodetypes="ccscccc" />
        <path
           style="fill:#ececec;fill-opacity:1;stroke:none;stroke-width:0.395835;stroke-linecap:round;stroke-linejoin:round;stroke-opacity:1;stop-color:#000000"
           d="m 67.30863,284.31245 -2.644055,-0.70853 1.993369,-0.53391 c 0.426697,-0.11432 0.875968,-0.11432 1.302665,0 l 1.994679,0.53337 z"
           id="path192602"
           sodipodi:nodetypes="cccccc" />
        <path
           style="color:#000000;fill:#dc1c4b;stroke-width:0.748034;stroke-linecap:round;stroke-linejoin:round;-inkscape-stroke:none"
           d="m 62.708984,287.63477 c -0.238777,-0.064 -0.487588,-0.0227 -0.669922,0.11718 -0.182333,0.13991 -0.285156,0.36999 -0.285156,0.61719 v 2.14844 c 3e-6,0.49924 0.3431,0.93641 0.828125,1.05469 l 1.392578,0.33984 c 0.479608,0.11695 0.953123,-0.25634 0.953125,-0.75 v -2.08399 c 0,-0.49439 -0.340805,-0.9404 -0.818359,-1.06835 z"
           id="path192599" />
        <path
           style="color:#000000;fill:#dc1c4b;stroke-width:0.748034;stroke-linecap:round;stroke-linejoin:round;-inkscape-stroke:none"
           d="m 62.708984,284.22461 c -0.238777,-0.064 -0.487588,-0.0227 -0.669922,0.11719 -0.182333,0.13991 -0.285156,0.36998 -0.285156,0.61718 v 2.14844 c 3e-6,0.49924 0.3431,0.93642 0.828125,1.05469 l 1.392578,0.33984 c 0.479608,0.11696 0.953123,-0.25438 0.953125,-0.74804 v -2.08594 c 0,-0.4944 -0.340805,-0.9404 -0.818359,-1.06836 z"
           id="path192596" />
        <path
           style="color:#000000;fill:#349951;stroke-width:0.748034;stroke-linecap:round;stroke-linejoin:round;-inkscape-stroke:none"
           d="m 72.199219,289.01953 c -0.411275,-0.11021 -0.828117,0.21095 -0.828125,0.63672 v 1.26758 c 10e-7,0.42064 0.285102,0.79152 0.691406,0.90039 l 0.773437,0.20703 c 0.411275,0.11021 0.828121,-0.20899 0.828125,-0.63477 v -1.26757 c 0,-0.42065 -0.285101,-0.79152 -0.691406,-0.90039 z"
           id="path192590" />
        <path
           style="color:#000000;fill:#349951;stroke-width:0.748034;stroke-linecap:round;stroke-linejoin:round;-inkscape-stroke:none"
           d="m 72.199219,291.3125 c -0.411275,-0.11021 -0.828117,0.21095 -0.828125,0.63672 v 1.26758 c 10e-7,0.42064 0.285102,0.79151 0.691406,0.90039 l 0.773437,0.20703 c 0.411275,0.11021 0.828121,-0.20899 0.828125,-0.63477 v -1.26758 c 0,-0.42064 -0.285101,-0.79151 -0.691406,-0.90039 z"
           id="path192587" />
        <path
           style="color:#000000;fill:#349951;stroke-width:0.748034;stroke-linecap:round;stroke-linejoin:round;-inkscape-stroke:none"
           d="m 70.435547,288.65234 c -0.411275,-0.1102 -0.828117,0.209 -0.828125,0.63477 v 1.26953 c 10e-7,0.42064 0.285102,0.79152 0.691406,0.90039 l 0.773438,0.20703 c 0.411275,0.11021 0.82812,-0.20899 0.828125,-0.63476 v -1.26953 c 0,-0.42065 -0.285102,-0.79152 -0.691407,-0.9004 z"
           id="path192569" />
        <path
           style="color:#000000;fill:#349951;stroke-width:0.748034;stroke-linecap:round;stroke-linejoin:round;-inkscape-stroke:none"
           d="m 70.435547,290.94531 c -0.411268,-0.11019 -0.828116,0.20899 -0.828125,0.63477 v 1.26953 c 10e-7,0.42064 0.285097,0.79152 0.691406,0.90039 l 0.773438,0.20703 c 0.411268,0.1102 0.828119,-0.20899 0.828125,-0.63476 v -1.26954 c -10e-7,-0.42064 -0.285096,-0.79152 -0.691407,-0.90039 z"
           id="path192566" />
        <path
           style="color:#000000;fill:#4895ef;stroke-width:0.748034;stroke-linecap:round;stroke-linejoin:round;-inkscape-stroke:none"
           d="m 74.599609,289.01953 -0.773437,0.20899 c -0.406305,0.10887 -0.691406,0.47974 -0.691406,0.90039 v 1.26757 c 5e-6,0.42578 0.41685,0.74498 0.828125,0.63477 l 0.773437,-0.20703 c 0.406304,-0.10887 0.691405,-0.47975 0.691406,-0.90039 v -1.26758 c -8e-6,-0.42577 -0.41685,-0.74693 -0.828125,-0.63672 z"
           id="path192560" />
        <path
           style="color:#000000;fill:#4895ef;stroke-width:0.748034;stroke-linecap:round;stroke-linejoin:round;-inkscape-stroke:none"
           d="m 76.363281,288.65234 -0.773437,0.20703 c -0.406305,0.10888 -0.691407,0.47975 -0.691407,0.9004 v 1.26953 c 5e-6,0.42577 0.416851,0.74497 0.828125,0.63476 L 76.5,291.45703 c 0.406304,-0.10887 0.691405,-0.47975 0.691406,-0.90039 v -1.26953 c -8e-6,-0.42577 -0.41685,-0.74497 -0.828125,-0.63477 z"
           id="path192557" />
        <path
           style="color:#000000;fill:#4895ef;stroke-width:0.748034;stroke-linecap:round;stroke-linejoin:round;-inkscape-stroke:none"
           d="m 74.599609,291.3125 -0.773437,0.20898 c -0.406305,0.10888 -0.691406,0.47975 -0.691406,0.90039 v 1.26758 c 5e-6,0.42578 0.41685,0.74498 0.828125,0.63477 l 0.773437,-0.20703 c 0.406304,-0.10888 0.691405,-0.47975 0.691406,-0.90039 v -1.26758 c -8e-6,-0.42577 -0.41685,-0.74693 -0.828125,-0.63672 z"
           id="path192554" />
        <path
           style="color:#000000;fill:#4895ef;stroke-width:0.748034;stroke-linecap:round;stroke-linejoin:round;-inkscape-stroke:none"
           d="m 76.363281,290.94531 -0.773437,0.20703 c -0.406311,0.10887 -0.691406,0.47975 -0.691407,0.90039 v 1.26954 c 6e-6,0.42577 0.416857,0.74496 0.828125,0.63476 L 76.5,293.75 c 0.406309,-0.10887 0.691405,-0.47975 0.691406,-0.90039 v -1.26953 c -8e-6,-0.42578 -0.416857,-0.74496 -0.828125,-0.63477 z"
           id="path192551" />
      </g>
      <path
         id="path13374"
         style="color:#000000;display:inline;fill:#000000;stroke-width:0.748034;stroke-linecap:round;stroke-linejoin:round;-inkscape-stroke:none"
         d="m 67.873435,288.73022 c -0.158557,0.0387 -0.299207,-0.0709 -0.299207,-0.2341 v -2.08618 c 0,-0.21816 0.215082,-0.50009 0.425812,-0.55655 l 1.400432,-0.37517 c 0.147902,-0.0396 0.290939,0.27761 0.290939,0.54932 v 1.84175 c 5.29e-4,0.14552 0.118546,0.26326 0.264067,0.26355 0.14532,-5.6e-4 0.262983,-0.11823 0.263549,-0.26355 v -2.20142 c 0,-0.21816 0.216635,-0.50009 0.427365,-0.55655 l 1.400429,-0.37517 c 0.189323,-0.0507 0.289388,0.0752 0.289388,0.22272 v 1.85157 c -5.29e-4,0.14693 0.118685,0.26619 0.265618,0.26562 0.146127,-5.9e-4 0.264121,-0.1195 0.263549,-0.26562 v -1.92547 c 0,-0.45696 -0.30889,-0.86074 -0.75034,-0.97875 l -4.08554,-1.09192 c -0.23577,-0.0632 -0.477874,-0.0946 -0.719881,-0.0946 -0.242006,0 -0.48411,0.0314 -0.719881,0.0946 -1.363334,0.36518 -2.723165,0.73057 -4.086055,1.09605 -0.441376,0.11827 -0.749827,0.51923 -0.749827,0.97617 v 2.22105 c 3e-6,0.25479 0.08935,0.4933 0.241329,0.68162 -0.15467,0.14156 -0.241329,0.35334 -0.241329,0.57981 v 2.1487 c 3e-6,0.49924 0.343347,0.93644 0.828373,1.05472 l 1.392164,0.33951 c 0.206722,0.0504 0.412263,0.01 0.579292,-0.0925 0.145719,0.24266 0.384215,0.42675 0.672827,0.49713 l 1.39268,0.33796 c 0.254653,0.0621 0.508114,-0.0142 0.68988,-0.1726 h 5.29e-4 c 0.18125,0.15844 0.433681,0.23469 0.688329,0.1726 l 0.961181,-0.23461 c 0.141671,-0.0342 0.22901,-0.17653 0.195337,-0.31833 -0.03417,-0.14268 -0.177909,-0.23031 -0.320392,-0.19533 l -0.961184,0.23461 c -0.158557,0.0387 -0.298688,-0.0714 -0.298688,-0.23461 v -2.08618 c 0,-0.21816 0.215083,-0.50008 0.425813,-0.55656 0.408892,-0.10952 0.817769,-0.21914 1.226799,-0.32814 0.141769,-0.036 0.227417,-0.18023 0.191203,-0.32195 -0.03577,-0.14223 -0.180414,-0.22823 -0.322461,-0.19172 z m -0.563846,-5.48081 c 0.19604,0 0.391983,0.0258 0.582909,0.077 l 1.038696,0.2775 -1.622124,0.43512 -1.620573,-0.4346 1.03818,-0.27802 c 0.190926,-0.0512 0.386872,-0.077 0.582912,-0.077 z m 2.645833,0.62787 1.627807,0.43512 -1.073319,0.28732 c -0.260541,0.0698 -0.48032,0.23423 -0.626319,0.44958 -0.190238,-0.28507 -0.609286,-0.49153 -0.928624,-0.56896 l -0.625285,-0.16794 z m -5.2896,5.3e-4 1.623158,0.4346 -0.626835,0.16795 c -0.372245,0.12785 -0.703665,0.2355 -0.92656,0.56947 -0.145997,-0.21553 -0.365633,-0.38025 -0.626319,-0.4501 l -1.0697,-0.2868 z m 2.643767,0.70745 c 0.549312,0.1524 1.143537,0.2945 1.675863,0.45579 l -1.122413,0.30075 c -0.22067,0.0591 -0.411832,0.18616 -0.553971,0.3545 -0.142587,-0.16834 -0.334333,-0.29537 -0.555004,-0.3545 l -1.120862,-0.30075 c 0.536181,-0.16393 1.122058,-0.30735 1.676387,-0.45579 z m -4.73718,0.1509 1.400432,0.37517 c 0.210733,0.0565 0.425813,0.33839 0.425813,0.55655 v 2.08618 c 0,0.1632 -0.140653,0.27275 -0.299207,0.23409 -0.46623,-0.10749 -0.928529,-0.22973 -1.39061,-0.35346 -0.316619,-0.077 -0.427366,-0.30165 -0.427366,-0.5271 v -2.14871 c 0,-0.19427 0.131715,-0.26539 0.290938,-0.22272 z m 2.64635,0.74259 1.398365,0.37465 c 0.210733,0.0565 0.427882,0.33839 0.427882,0.55655 v 2.08618 c -3e-6,0.1632 -0.140137,0.27276 -0.298691,0.2341 -0.49647,-0.10989 -1.004787,-0.25747 -1.492414,-0.37414 -0.196202,-0.089 -0.326078,-0.28418 -0.326081,-0.50643 v -1.82211 c 0,-0.37507 0.118748,-0.59494 0.290939,-0.5488 z m 7.576283,2.11511 -1.595768,0.43718 c -0.141791,0.0385 -0.225079,0.18511 -0.185518,0.3266 0.0394,0.14069 0.185377,0.22282 0.326078,0.18345 l 1.595768,-0.43771 c 0.30353,-0.0834 0.624062,-0.0834 0.927592,0 l 0.255281,0.0703 -2.734715,0.75189 c -0.05513,-0.0276 -0.113478,-0.0497 -0.174668,-0.0661 l -0.773596,-0.20723 c -0.411274,-0.1102 -0.82785,0.20934 -0.827858,0.63511 v 1.26917 c 3e-6,0.20942 0.07061,0.40678 0.19172,0.56534 -0.117179,0.11752 -0.191715,0.27828 -0.19172,0.45837 v 1.26969 c 3e-6,0.42064 0.285123,0.79133 0.691433,0.9002 l 0.773078,0.20723 c 0.198311,0.0531 0.397841,0.006 0.551387,-0.10439 0.116252,0.12439 0.266276,0.21785 0.438734,0.26407 l 0.773597,0.20722 c 0.203446,0.0545 0.408231,0.004 0.563272,-0.11266 0.15508,0.11674 0.360198,0.16721 0.56379,0.11266 l 0.773596,-0.20722 c 0.172458,-0.0462 0.32248,-0.13968 0.438732,-0.26407 0.153549,0.11034 0.353079,0.15752 0.551389,0.10439 l 0.773597,-0.20723 c 0.406308,-0.10887 0.690912,-0.47956 0.690912,-0.9002 v -1.26969 c -3e-6,-0.18009 -0.07454,-0.34085 -0.19172,-0.45837 0.121108,-0.15856 0.19172,-0.35592 0.19172,-0.56534 v -1.26917 c -8e-6,-0.42577 -0.416581,-0.74531 -0.827855,-0.63511 l -0.773597,0.20723 c -0.172778,0.0463 -0.323426,0.13985 -0.439766,0.26458 -0.153422,-0.11035 -0.352436,-0.15742 -0.550355,-0.10439 l -0.773596,0.20877 c -0.166294,0.0446 -0.311881,0.13337 -0.426329,0.25115 -0.114456,-0.11779 -0.260543,-0.20658 -0.42685,-0.25115 l -0.349332,-0.0946 2.495455,-0.68523 0.306959,0.0847 c 0.141325,0.0392 0.287592,-0.044 0.326078,-0.18552 0.03923,-0.14133 -0.04399,-0.28759 -0.185518,-0.32608 -0.521173,-0.14245 -1.041056,-0.28497 -1.562706,-0.42788 -0.418878,-0.11724 -0.805976,-0.0827 -1.208701,1e-5 z M 62.58222,288.1623 c 0.466619,0.10771 0.928143,0.23522 1.390613,0.35915 0.210733,0.0565 0.425813,0.3384 0.425813,0.55656 v 2.08411 c 0,0.1632 -0.140653,0.27482 -0.299207,0.23616 l -1.392161,-0.33951 c -0.250706,-0.0611 -0.425804,-0.28301 -0.425807,-0.54107 v -2.1487 c 0,-0.17523 0.143034,-0.24896 0.300749,-0.2067 z m 2.64428,0.74414 c 0.466749,0.10653 0.928289,0.23321 1.390613,0.35709 0.210733,0.0565 0.427882,0.33839 0.427882,0.55655 v 2.08618 c -3e-6,0.1632 -0.140137,0.27328 -0.298691,0.23461 l -1.392679,-0.34003 c -0.250714,-0.0611 -0.425813,-0.28299 -0.425815,-0.54105 v -2.14819 c 0,-0.17606 0.1554,-0.24355 0.29869,-0.20516 z m 5.072571,0.25787 0.773078,0.2067 c 0.177443,0.0476 0.298691,0.20491 0.298691,0.38861 v 1.26969 c -3e-6,0.0911 -0.07371,0.14659 -0.161748,0.12299 l -0.773596,-0.20722 c -0.177443,-0.0475 -0.298691,-0.20491 -0.298691,-0.38861 v -1.26917 c 0,-0.11662 0.108535,-0.13739 0.162266,-0.12299 z m 6.362917,0.12299 v 1.26917 c 0,0.1837 -0.121248,0.34107 -0.298688,0.38861 l -0.773597,0.20722 c -0.08804,0.0236 -0.161745,-0.0319 -0.161747,-0.12299 v -1.28674 c 0.0073,-0.17629 0.126793,-0.32549 0.29869,-0.37155 l 0.773597,-0.20671 c 0.104754,-0.0281 0.161745,0.0493 0.161745,0.12299 z m -4.599718,0.24391 0.773597,0.20722 c 0.177443,0.0476 0.298688,0.20698 0.298688,0.39068 v 1.26762 c 0,0.0912 -0.07371,0.14814 -0.161748,0.12454 l -0.773594,-0.20877 c -0.177442,-0.0476 -0.29869,-0.20492 -0.29869,-0.38862 v -1.26762 c 0,-0.10623 0.0985,-0.142 0.161747,-0.12505 z m 2.836003,0.12506 v 1.26762 c 0,0.1837 -0.121248,0.34106 -0.298691,0.38861 l -0.773596,0.20877 c -0.08804,0.0236 -0.161746,-0.0333 -0.161746,-0.12454 v -1.26763 c 0,-0.1837 0.121246,-0.34313 0.298689,-0.39068 l 0.773596,-0.20722 c 0.100598,-0.027 0.161748,0.0453 0.161748,0.12507 z m -4.599202,1.80092 0.773078,0.20671 c 0.177435,0.0475 0.298691,0.20491 0.298691,0.3886 v 1.26969 c -3e-6,0.0911 -0.0737,0.14658 -0.161748,0.12299 l -0.773596,-0.2067 c -0.177435,-0.0475 -0.298691,-0.20492 -0.298691,-0.38861 v -1.26969 c 0,-0.1188 0.105174,-0.13829 0.162266,-0.12299 z m 6.362917,0.12299 v 1.26969 c 0,0.18369 -0.121253,0.34107 -0.298688,0.38861 l -0.773597,0.2067 c -0.08805,0.0236 -0.161745,-0.0319 -0.161747,-0.12299 v -1.28674 c 0.0073,-0.17628 0.126799,-0.3255 0.29869,-0.37155 l 0.773597,-0.20671 c 0.102095,-0.0274 0.161745,0.0361 0.161745,0.12299 z m -4.631759,0.23875 c 0.01045,5e-4 0.02103,0.002 0.03204,0.005 l 0.773597,0.20723 c 0.177443,0.0476 0.298688,0.20698 0.298688,0.39067 v 1.26762 c 0,0.0911 -0.07371,0.14865 -0.161748,0.12506 l -0.773594,-0.20722 c -0.177442,-0.0476 -0.29869,-0.207 -0.29869,-0.39069 v -1.16427 -0.10335 c 0,-0.0798 0.05655,-0.1338 0.129706,-0.13023 z m 2.868044,0.13022 v 1.26762 c 0,0.18369 -0.121248,0.34313 -0.298691,0.39068 l -0.773596,0.20722 c -0.08804,0.0236 -0.161746,-0.034 -0.161746,-0.12506 v -1.26762 c 0,-0.18369 0.121246,-0.34312 0.298689,-0.39067 l 0.773596,-0.20723 c 0.108585,-0.0291 0.161748,0.0395 0.161748,0.12506 z"
         sodipodi:nodetypes="csscccccccccccsccccccccccsscccccccccccssscccccscccccsccccccccccccccccccccccccccccccccsccccccccccccccccccccscccccccccccsccscccccccccccccccccsscccccccsccccccccccccscccscccccccccssccccccsccsscccccccccscccscccccccsccssccscssscsccssccc" />
    </g>
  </g>
</svg>
